<?xml version="1.0" encoding="utf-8"?>
<!-- Generator: Adobe Illustrator 24.2.3, SVG Export Plug-In . SVG Version: 6.00 Build 0)  -->
<svg version="1.1" id="Слой_1" xmlns="http://www.w3.org/2000/svg" xmlns:xlink="http://www.w3.org/1999/xlink" x="0px" y="0px"
	 viewBox="0 0 2500 2500" style="enable-background:new 0 0 2500 2500;" xml:space="preserve">
<style type="text/css">
	.st0{fill:#A3A3A3;}
	.st1{fill-rule:evenodd;clip-rule:evenodd;fill:#FFFFFF;}
</style>
<circle class="st0" cx="1250" cy="1250" r="1250"/>
<path class="st1" d="M1958.7,1958.6h-291.2v-496c0-136-51.7-212-159.3-212c-117.1,0-178.2,79.1-178.2,212v496h-280.7v-944.9h280.7
	V1141c0,0,84.4-156.2,284.9-156.2c200.4,0,343.9,122.4,343.9,375.5L1958.7,1958.6L1958.7,1958.6z M714.4,890
	c-95.6,0-173.1-78.1-173.1-174.3s77.5-174.3,173.1-174.3s173,78.1,173,174.3S810,890,714.4,890z M569.5,1958.6h292.7v-944.9H569.5
	V1958.6z"/>
</svg>
