<?xml version="1.0" encoding="utf-8"?>
<!-- Generator: Adobe Illustrator 24.0.1, SVG Export Plug-In . SVG Version: 6.00 Build 0)  -->
<svg version="1.1" id="Слой_1" xmlns="http://www.w3.org/2000/svg" xmlns:xlink="http://www.w3.org/1999/xlink" x="0px" y="0px"
	 viewBox="0 0 2500 2500" style="enable-background:new 0 0 2500 2500;" xml:space="preserve">
<style type="text/css">
	.st0{fill:#A3A3A3;}
	.st1{fill:#FFFFFF;}
</style>
<g>
	<path class="st0" d="M1250,10.8C565.7,10.8,10.8,565.7,10.8,1250S565.6,2489.2,1250,2489.2c684.3,0,1239.2-554.8,1239.2-1239.2
		S1934.3,10.8,1250,10.8z"/>
	<path class="st1" d="M1759.2,762.1c-28.7-3.3-64.5,4.6-104.7,19.1C1581.1,807.7,643,1206,588.8,1229.1
		c-51.3,21.9-100,45.7-100.1,80c0,24.2,14.4,37.9,54,52c41.3,14.8,145.2,46.2,206.6,63.2c59.1,16.3,126.4,2.1,164.2-21.4
		c39.9-24.8,501.4-333.6,534.5-360.6c33-27,59.5,7.7,32.4,34.8c-27,27.1-343.8,334.4-385.6,376.9c-50.7,51.7-14.7,105.3,19.4,126.7
		c38.8,24.5,318.2,211.9,360.3,241.9c42.1,30.1,84.6,43.7,123.8,43.7c39.2,0,59.6-51.5,79.1-111.2
		c22.8-69.9,129.7-766.9,142.8-904.3c4-41.6-9.2-69.3-34.9-81.6C1777.6,765.5,1768.8,763.2,1759.2,762.1z"/>
</g>
</svg>
